<svg width="150" height="150" viewBox="0 0 150 150" fill="none" xmlns="http://www.w3.org/2000/svg">
<circle cx="75" cy="75" r="75" fill="#FAFFFD"/>
<g clip-path="url(#clip0)">
<path d="M74.625 21L30.75 40.5V69.75C30.75 96.8063 49.47 122.108 74.625 128.25C99.78 122.108 118.5 96.8063 118.5 69.75V40.5L74.625 21Z" stroke="#9FD356" stroke-width="10"/>
</g>
<g clip-path="url(#clip1)">
<path d="M96.8295 90.2611L79.1841 72.6156L58.5685 52H56.9574L56.6284 52.8359C55.7601 55.0423 55.3891 57.299 55.5557 59.3617C55.7455 61.713 56.6388 63.7486 58.139 65.2488L74.2326 81.3425L76.3554 79.2197L91.2339 95.8568C92.714 97.3369 95.2615 97.4248 96.8295 95.8568C98.3723 94.314 98.3723 91.8038 96.8295 90.2611Z" fill="#9FD356"/>
<path d="M66.7749 77.615L54.1704 90.2195C52.6278 91.7622 52.6278 94.2724 54.1704 95.8151C55.6359 97.2806 58.1711 97.4099 59.766 95.8151L72.3705 83.2105L66.7749 77.615Z" fill="#9FD356"/>
<path d="M96.0887 59.4926L88.9387 66.6425L87.0734 64.7773L94.2234 57.6273L92.3581 55.7621L85.2082 62.912L83.343 61.0468L90.493 53.8969L88.6279 52.0317L79.3018 61.3578C78.1609 62.4987 77.4797 64.0136 77.3833 65.6236C77.359 66.0315 77.2665 66.4327 77.1132 66.8143L83.1714 72.8725C83.553 72.719 83.9543 72.6266 84.3621 72.6023C85.9721 72.5062 87.487 71.8248 88.6279 70.6839L97.954 61.3579L96.0887 59.4926Z" fill="#9FD356"/>
</g>
<defs>
<clipPath id="clip0">
<rect width="117" height="117" fill="white" transform="translate(16.5 16.5)"/>
</clipPath>
<clipPath id="clip1">
<rect width="45" height="45" fill="white" transform="translate(53 52)"/>
</clipPath>
</defs>
</svg>
